<svg width="1920" height="3456" xmlns="http://www.w3.org/2000/svg" xmlns:xlink="http://www.w3.org/1999/xlink" overflow="hidden"><g><rect x="0" y="0" width="1920" height="3456" fill="#FFFFFF"/><path d="M789 377.668C789 354.103 808.103 335 831.668 335L1104.33 335C1127.9 335 1147 354.103 1147 377.668L1147 548.332C1147 571.897 1127.9 591 1104.33 591L831.668 591C808.103 591 789 571.897 789 548.332Z" stroke="#042433" stroke-width="2" stroke-miterlimit="8" fill="#156082" fill-rule="evenodd"/><text fill="#FFFFFF" font-family="Aptos,Aptos_MSFontService,sans-serif" font-weight="400" font-size="32" transform="translate(856.549 470)">Clicktream Logs</text><path d="M789 759.668C789 736.103 808.103 717 831.668 717L1104.33 717C1127.9 717 1147 736.103 1147 759.668L1147 930.332C1147 953.897 1127.9 973 1104.33 973L831.668 973C808.103 973 789 953.897 789 930.332Z" stroke="#042433" stroke-width="2" stroke-miterlimit="8" fill="#156082" fill-rule="evenodd"/><text fill="#FFFFFF" font-family="Aptos,Aptos_MSFontService,sans-serif" font-weight="400" font-size="32" transform="translate(913.683 814)">Session</text><text fill="#FFFFFF" font-family="Aptos,Aptos_MSFontService,sans-serif" font-weight="400" font-size="32" transform="translate(861.863 852)">Reconstruction</text><text fill="#FFFFFF" font-family="Aptos,Aptos_MSFontService,sans-serif" font-weight="400" font-size="32" transform="translate(904.096 890)">(Pyspark)</text><path d="M789 1141.67C789 1118.1 808.103 1099 831.668 1099L1104.33 1099C1127.9 1099 1147 1118.1 1147 1141.67L1147 1312.33C1147 1335.9 1127.9 1355 1104.33 1355L831.668 1355C808.103 1355 789 1335.9 789 1312.33Z" stroke="#042433" stroke-width="2" stroke-miterlimit="8" fill="#156082" fill-rule="evenodd"/><text fill="#FFFFFF" font-family="Aptos,Aptos_MSFontService,sans-serif" font-weight="400" font-size="32" transform="translate(831.583 1214)">Feature Engineering</text><text fill="#FFFFFF" font-family="Aptos,Aptos_MSFontService,sans-serif" font-weight="400" font-size="32" transform="translate(908.936 1252)">(Signals)</text><path d="M789 1522.67C789 1499.1 808.103 1480 831.668 1480L1104.33 1480C1127.9 1480 1147 1499.1 1147 1522.67L1147 1693.33C1147 1716.9 1127.9 1736 1104.33 1736L831.668 1736C808.103 1736 789 1716.9 789 1693.33Z" stroke="#042433" stroke-width="2" stroke-miterlimit="8" fill="#156082" fill-rule="evenodd"/><text fill="#FFFFFF" font-family="Aptos,Aptos_MSFontService,sans-serif" font-weight="400" font-size="32" transform="translate(836.159 1596)">Statistical Baseline</text><text fill="#FFFFFF" font-family="Aptos,Aptos_MSFontService,sans-serif" font-weight="400" font-size="32" transform="translate(859.439 1634)">(Median + MAD)</text><path d="M789 1904.67C789 1881.1 808.103 1862 831.668 1862L1104.33 1862C1127.9 1862 1147 1881.1 1147 1904.67L1147 2075.33C1147 2098.9 1127.9 2118 1104.33 2118L831.668 2118C808.103 2118 789 2098.9 789 2075.33Z" stroke="#042433" stroke-width="2" stroke-miterlimit="8" fill="#156082" fill-rule="evenodd"/><text fill="#FFFFFF" font-family="Aptos,Aptos_MSFontService,sans-serif" font-weight="400" font-size="32" transform="translate(849.266 1997)">Persistence Filter</text><path d="M789 2286.67C789 2263.1 808.103 2244 831.668 2244L1104.33 2244C1127.9 2244 1147 2263.1 1147 2286.67L1147 2457.33C1147 2480.9 1127.9 2500 1104.33 2500L831.668 2500C808.103 2500 789 2480.9 789 2457.33Z" stroke="#042433" stroke-width="2" stroke-miterlimit="8" fill="#156082" fill-rule="evenodd"/><text fill="#FFFFFF" font-family="Aptos,Aptos_MSFontService,sans-serif" font-weight="400" font-size="32" transform="translate(886.833 2378)">Slack Alerts</text><text font-family="Segoe UI,Segoe UI_MSFontService,sans-serif" font-weight="400" font-size="99.56" transform="translate(132.963 199)">Telemetry Anomaly Detection Pipeline</text><path d="M969 591 969 709.969 967 709.969 967 591ZM972 708.636 968 716.636 964 708.636Z" fill="#156082"/><path d="M969 973 969 1091.97 967 1091.97 967 973ZM972 1090.64 968 1098.64 964 1090.64Z" fill="#156082"/><path d="M969 1355 969 1473.97 967 1473.97 967 1355ZM972 1472.64 968 1480.64 964 1472.64Z" fill="#156082"/><path d="M969 1736 969 1854.97 967 1854.97 967 1736ZM972 1853.64 968 1861.64 964 1853.64Z" fill="#156082"/><path d="M969 2118 969 2236.97 967 2236.97 967 2118ZM972 2235.64 968 2243.64 964 2235.64Z" fill="#156082"/></g></svg>