<svg width="1920" height="2688" xmlns="http://www.w3.org/2000/svg" xmlns:xlink="http://www.w3.org/1999/xlink" overflow="hidden"><g><rect x="0" y="0" width="1920" height="2688" fill="#FFFFFF"/><path d="M789 380.668C789 357.103 808.103 338 831.668 338L1104.33 338C1127.9 338 1147 357.103 1147 380.668L1147 551.332C1147 574.897 1127.9 594 1104.33 594L831.668 594C808.103 594 789 574.897 789 551.332Z" stroke="#042433" stroke-width="2" stroke-miterlimit="8" fill="#156082" fill-rule="evenodd"/><text fill="#FFFFFF" font-family="Aptos,Aptos_MSFontService,sans-serif" font-weight="400" font-size="32" transform="translate(856.549 473)">Clicktream Logs</text><path d="M789 762.668C789 739.103 808.103 720 831.668 720L1104.33 720C1127.9 720 1147 739.103 1147 762.668L1147 933.332C1147 956.897 1127.9 976 1104.33 976L831.668 976C808.103 976 789 956.897 789 933.332Z" stroke="#042433" stroke-width="2" stroke-miterlimit="8" fill="#156082" fill-rule="evenodd"/><text fill="#FFFFFF" font-family="Aptos,Aptos_MSFontService,sans-serif" font-weight="400" font-size="32" transform="translate(913.683 816)">Session</text><text fill="#FFFFFF" font-family="Aptos,Aptos_MSFontService,sans-serif" font-weight="400" font-size="32" transform="translate(861.863 854)">Reconstruction</text><text fill="#FFFFFF" font-family="Aptos,Aptos_MSFontService,sans-serif" font-weight="400" font-size="32" transform="translate(904.096 892)">(Pyspark)</text><path d="M789 1143.67C789 1120.1 808.103 1101 831.668 1101L1104.33 1101C1127.9 1101 1147 1120.1 1147 1143.67L1147 1314.33C1147 1337.9 1127.9 1357 1104.33 1357L831.668 1357C808.103 1357 789 1337.9 789 1314.33Z" stroke="#042433" stroke-width="2" stroke-miterlimit="8" fill="#156082" fill-rule="evenodd"/><text fill="#FFFFFF" font-family="Aptos,Aptos_MSFontService,sans-serif" font-weight="400" font-size="32" transform="translate(831.583 1217)">Feature Engineering</text><text fill="#FFFFFF" font-family="Aptos,Aptos_MSFontService,sans-serif" font-weight="400" font-size="32" transform="translate(908.936 1255)">(Signals)</text><path d="M789 1525.67C789 1502.1 808.103 1483 831.668 1483L1104.33 1483C1127.9 1483 1147 1502.1 1147 1525.67L1147 1696.33C1147 1719.9 1127.9 1739 1104.33 1739L831.668 1739C808.103 1739 789 1719.9 789 1696.33Z" stroke="#042433" stroke-width="2" stroke-miterlimit="8" fill="#156082" fill-rule="evenodd"/><text fill="#FFFFFF" font-family="Aptos,Aptos_MSFontService,sans-serif" font-weight="400" font-size="32" transform="translate(836.159 1599)">Statistical Baseline</text><text fill="#FFFFFF" font-family="Aptos,Aptos_MSFontService,sans-serif" font-weight="400" font-size="32" transform="translate(859.439 1637)">(Median + MAD)</text><path d="M789 1907.67C789 1884.1 808.103 1865 831.668 1865L1104.33 1865C1127.9 1865 1147 1884.1 1147 1907.67L1147 2078.33C1147 2101.9 1127.9 2121 1104.33 2121L831.668 2121C808.103 2121 789 2101.9 789 2078.33Z" stroke="#042433" stroke-width="2" stroke-miterlimit="8" fill="#156082" fill-rule="evenodd"/><text fill="#FFFFFF" font-family="Aptos,Aptos_MSFontService,sans-serif" font-weight="400" font-size="32" transform="translate(849.266 1999)">Persistence Filter</text><path d="M789 2288.67C789 2265.1 808.103 2246 831.668 2246L1104.33 2246C1127.9 2246 1147 2265.1 1147 2288.67L1147 2459.33C1147 2482.9 1127.9 2502 1104.33 2502L831.668 2502C808.103 2502 789 2482.9 789 2459.33Z" stroke="#042433" stroke-width="2" stroke-miterlimit="8" fill="#156082" fill-rule="evenodd"/><text fill="#FFFFFF" font-family="Aptos,Aptos_MSFontService,sans-serif" font-weight="400" font-size="32" transform="translate(886.833 2381)">Slack Alerts</text><text font-family="Segoe UI,Segoe UI_MSFontService,sans-serif" font-weight="400" font-size="99.5467" transform="translate(133.126 202)">Telemetry Anomaly Detection Pipeline</text><path d="M969 594 969 712.969 967 712.969 967 594ZM972 711.636 968 719.636 964 711.636Z" fill="#156082"/><path d="M969 976 969 1094.97 967 1094.97 967 976ZM972 1093.64 968 1101.64 964 1093.64Z" fill="#156082"/><path d="M969 1357 969 1475.97 967 1475.97 967 1357ZM972 1474.64 968 1482.64 964 1474.64Z" fill="#156082"/><path d="M969 1739 969 1857.97 967 1857.97 967 1739ZM972 1856.64 968 1864.64 964 1856.64Z" fill="#156082"/><path d="M969 2121 969 2239.97 967 2239.97 967 2121ZM972 2238.64 968 2246.64 964 2238.64Z" fill="#156082"/></g></svg>